<svg width="128" height="128" viewBox="0 0 128 128" fill="none" xmlns="http://www.w3.org/2000/svg">
<g clip-path="url(#clip0_2_2)">
<path d="M42.5178 30.1733H31.8644C31.7223 29.0795 31.4311 28.0923 30.9908 27.2116C30.5505 26.331 29.9681 25.5781 29.2436 24.9531C28.5192 24.3281 27.6598 23.8523 26.6655 23.5256C25.6854 23.1847 24.5988 23.0142 23.4056 23.0142C21.2891 23.0142 19.4638 23.5327 17.9297 24.5696C16.4098 25.6065 15.238 27.1051 14.4141 29.0653C13.6044 31.0256 13.1996 33.3977 13.1996 36.1818C13.1996 39.0795 13.6115 41.5085 14.4354 43.4688C15.2735 45.4148 16.4453 46.8849 17.951 47.8793C19.4709 48.8594 21.2678 49.3494 23.3417 49.3494C24.5064 49.3494 25.5647 49.2003 26.5164 48.902C27.4823 48.6037 28.3274 48.1705 29.0519 47.6023C29.7905 47.0199 30.3942 46.3168 30.863 45.4929C31.3459 44.6548 31.6797 43.7102 31.8644 42.6591L42.5178 42.723C42.3331 44.6548 41.7721 46.5582 40.8346 48.4332C39.9113 50.3082 38.6399 52.0199 37.0206 53.5682C35.4013 55.1023 33.4269 56.3239 31.0973 57.233C28.782 58.142 26.1257 58.5966 23.1286 58.5966C19.1797 58.5966 15.6428 57.7301 12.5178 55.9972C9.40699 54.25 6.94961 51.7074 5.14563 48.3693C3.34165 45.0312 2.43966 40.9687 2.43966 36.1818C2.43966 31.3807 3.35586 27.3111 5.18824 23.973C7.02063 20.6349 9.49932 18.0994 12.6243 16.3665C15.7493 14.6335 19.2507 13.767 23.1286 13.767C25.7706 13.767 28.2138 14.1364 30.4581 14.875C32.7024 15.5994 34.6769 16.6648 36.3814 18.071C38.086 19.4631 39.4709 21.1747 40.5363 23.206C41.6016 25.2372 42.2621 27.5597 42.5178 30.1733ZM53.2786 58H41.9434L56.6664 14.3636H70.7076L85.4306 58H74.0953L63.8468 25.358H63.5059L53.2786 58ZM51.7658 40.8267H75.459V48.8381H51.7658V40.8267ZM97.0756 14.3636V58H86.5287V14.3636H97.0756Z" fill="#027CDF"/>
<circle cx="114" cy="40" r="12" fill="#027CDF"/>
<path d="M2.36311 112V70.5455H12.3826V87.1839H28.7175V70.5455H38.7168V112H28.7175V95.3413H12.3826V112H2.36311ZM72.931 70.5455H82.9303V97.2844C82.9303 100.375 82.1948 103.067 80.7239 105.361C79.2531 107.641 77.2019 109.409 74.5705 110.664C71.9391 111.906 68.8827 112.526 65.4011 112.526C61.8791 112.526 58.8024 111.906 56.171 110.664C53.5396 109.409 51.4953 107.641 50.0379 105.361C48.5805 103.067 47.8518 100.375 47.8518 97.2844V70.5455H57.8713V96.4141C57.8713 97.8445 58.1817 99.1197 58.8024 100.24C59.4367 101.36 60.3205 102.237 61.4541 102.871C62.5876 103.505 63.9033 103.822 65.4011 103.822C66.899 103.822 68.208 103.505 69.328 102.871C70.4615 102.237 71.3454 101.36 71.9796 100.24C72.6139 99.1197 72.931 97.8445 72.931 96.4141V70.5455ZM92.0602 112V70.5455H109.346C112.45 70.5455 115.048 70.984 117.139 71.8611C119.244 72.7383 120.823 73.9663 121.876 75.5451C122.942 77.1239 123.475 78.9524 123.475 81.0305C123.475 82.6094 123.144 84.0195 122.483 85.261C121.822 86.489 120.911 87.5078 119.751 88.3175C118.59 89.1271 117.247 89.6939 115.722 90.0178V90.4226C117.396 90.5036 118.941 90.9556 120.358 91.7788C121.788 92.6019 122.935 93.7489 123.799 95.2198C124.662 96.6772 125.094 98.4045 125.094 100.402C125.094 102.628 124.528 104.619 123.394 106.373C122.26 108.114 120.621 109.49 118.475 110.502C116.33 111.501 113.725 112 110.662 112H92.0602ZM102.08 103.924H108.274C110.446 103.924 112.045 103.512 113.071 102.689C114.11 101.866 114.629 100.719 114.629 99.2479C114.629 98.1818 114.38 97.2642 113.88 96.495C113.381 95.7124 112.673 95.1119 111.755 94.6935C110.838 94.2617 109.738 94.0458 108.456 94.0458H102.08V103.924ZM102.08 87.5888H107.626C108.719 87.5888 109.691 87.4066 110.541 87.0423C111.391 86.6779 112.052 86.1516 112.524 85.4634C113.01 84.7752 113.253 83.9453 113.253 82.9737C113.253 81.5838 112.76 80.4908 111.775 79.6946C110.79 78.8984 109.461 78.5004 107.788 78.5004H102.08V87.5888Z" fill="#027CDF"/>
</g>
<defs>
<clipPath id="clip0_2_2">
<rect width="128" height="128" fill="white"/>
</clipPath>
</defs>
</svg>
